# xmcd
#
# Track frame offsets:
#	150
#	16801
#	29344
#	41887
#	53474
#	65061
#	77473
#	91968
#	106613
#	121258
#	138323
#	160512
#	178663
#	201831
#	219828
#	241858
#	259149
#	279847
#	301288
#
# Disc length: 4250 seconds
#
# Revision: 0
# Processed by: cddbd v1.5.2PL0 Copyright (c) Steve Scherf et al.
# Submitted via: EasyCDDAExtractor 2010.6.0.0
#
DISCID=ed109813
DTITLE=Emmylou Harris - Songbird: Rare Tracks and Forgotten Gems - Disc # 2
DYEAR=1900
DGENRE=Country
TTITLE0=The Sweetheart Of The Rodeo
TTITLE1=When I Was Yours
TTITLE2=My Father's Hose
TTITLE3=Bright Morning Stars
TTITLE4=When He Calls
TTITLE5=Lonely Street
TTITLE6=Brand New Dance
TTITLE7=Get Up, John
TTITLE8=If I Could Be There
TTITLE9=Ballad Of A Runaway Horse
TTITLE10=Going Back To Harlem
TTITLE11=Sweet, Old World
TTITLE12=All My Tears
TTITLE13=Prayer In Open D (Live Recording)
TTITLE14=Bang The Drum Slowly
TTITLE15=Boy From Tupelo
TTITLE16=Lost Unto This World
TTITLE17=Man Is Am Island
TTITLE18=Cup Of Kindness
EXTD=
EXTT0=
EXTT1=
EXTT2=
EXTT3=
EXTT4=
EXTT5=
EXTT6=
EXTT7=
EXTT8=
EXTT9=
EXTT10=
EXTT11=
EXTT12=
EXTT13=
EXTT14=
EXTT15=
EXTT16=
EXTT17=
EXTT18=
PLAYORDER=
